<?xml version="1.0" encoding="UTF-8" standalone="no"?>
<!DOCTYPE svg PUBLIC "-//W3C//DTD SVG 1.1//EN"
 "http://www.w3.org/Graphics/SVG/1.1/DTD/svg11.dtd">
<!-- Generated by graphviz version 2.43.0 (0)
 -->
<!-- Title: wideband_detector1_impl.h Pages: 1 -->
<svg width="352pt" height="218pt"
 viewBox="0.00 0.00 351.50 218.00" xmlns="http://www.w3.org/2000/svg" xmlns:xlink="http://www.w3.org/1999/xlink">
<g id="graph0" class="graph" transform="scale(1 1) rotate(0) translate(4 214)">
<title>wideband_detector1_impl.h</title>
<polygon fill="white" stroke="transparent" points="-4,4 -4,-214 347.5,-214 347.5,4 -4,4"/>
<!-- Node1 -->
<g id="node1" class="node">
<title>Node1</title>
<g id="a_node1"><a xlink:title=" ">
<polygon fill="#bfbfbf" stroke="black" points="205.5,-179.5 205.5,-209.5 321.5,-209.5 321.5,-179.5 205.5,-179.5"/>
<text text-anchor="start" x="213.5" y="-197.5" font-family="Helvetica,sans-Serif" font-size="10.00">wideband_detector1</text>
<text text-anchor="middle" x="263.5" y="-186.5" font-family="Helvetica,sans-Serif" font-size="10.00">_impl.h</text>
</a>
</g>
</g>
<!-- Node2 -->
<g id="node2" class="node">
<title>Node2</title>
<g id="a_node2"><a xlink:href="wideband__detector1_8h.html" target="_top" xlink:title=" ">
<polygon fill="white" stroke="black" points="61.5,-112.5 61.5,-142.5 215.5,-142.5 215.5,-112.5 61.5,-112.5"/>
<text text-anchor="start" x="69.5" y="-130.5" font-family="Helvetica,sans-Serif" font-size="10.00">gnuradio/ainfosec/wideband</text>
<text text-anchor="middle" x="138.5" y="-119.5" font-family="Helvetica,sans-Serif" font-size="10.00">_detector1.h</text>
</a>
</g>
</g>
<!-- Node1&#45;&gt;Node2 -->
<g id="edge1" class="edge">
<title>Node1&#45;&gt;Node2</title>
<path fill="none" stroke="midnightblue" d="M236.38,-179.4C218.28,-169.98 194.27,-157.5 174.57,-147.26"/>
<polygon fill="midnightblue" stroke="midnightblue" points="176.06,-144.08 165.57,-142.58 172.83,-150.3 176.06,-144.08"/>
</g>
<!-- Node6 -->
<g id="node6" class="node">
<title>Node6</title>
<g id="a_node6"><a xlink:title=" ">
<polygon fill="white" stroke="#bfbfbf" points="234,-118 234,-137 293,-137 293,-118 234,-118"/>
<text text-anchor="middle" x="263.5" y="-125" font-family="Helvetica,sans-Serif" font-size="10.00">zmq.hpp</text>
</a>
</g>
</g>
<!-- Node1&#45;&gt;Node6 -->
<g id="edge5" class="edge">
<title>Node1&#45;&gt;Node6</title>
<path fill="none" stroke="midnightblue" d="M263.5,-179.4C263.5,-170.06 263.5,-157.71 263.5,-147.52"/>
<polygon fill="midnightblue" stroke="midnightblue" points="267,-147.19 263.5,-137.19 260,-147.19 267,-147.19"/>
</g>
<!-- Node7 -->
<g id="node7" class="node">
<title>Node7</title>
<g id="a_node7"><a xlink:title=" ">
<polygon fill="white" stroke="#bfbfbf" points="311.5,-118 311.5,-137 343.5,-137 343.5,-118 311.5,-118"/>
<text text-anchor="middle" x="327.5" y="-125" font-family="Helvetica,sans-Serif" font-size="10.00">list</text>
</a>
</g>
</g>
<!-- Node1&#45;&gt;Node7 -->
<g id="edge6" class="edge">
<title>Node1&#45;&gt;Node7</title>
<path fill="none" stroke="midnightblue" d="M277.39,-179.4C287.46,-169.16 301.12,-155.3 311.63,-144.62"/>
<polygon fill="midnightblue" stroke="midnightblue" points="314.42,-146.78 318.94,-137.19 309.43,-141.86 314.42,-146.78"/>
</g>
<!-- Node3 -->
<g id="node3" class="node">
<title>Node3</title>
<g id="a_node3"><a xlink:href="api_8h.html" target="_top" xlink:title=" ">
<polygon fill="white" stroke="black" points="0,-56.5 0,-75.5 131,-75.5 131,-56.5 0,-56.5"/>
<text text-anchor="middle" x="65.5" y="-63.5" font-family="Helvetica,sans-Serif" font-size="10.00">gnuradio/ainfosec/api.h</text>
</a>
</g>
</g>
<!-- Node2&#45;&gt;Node3 -->
<g id="edge2" class="edge">
<title>Node2&#45;&gt;Node3</title>
<path fill="none" stroke="midnightblue" d="M121.2,-112.4C110.05,-103.31 95.55,-91.49 84.14,-82.19"/>
<polygon fill="midnightblue" stroke="midnightblue" points="86.08,-79.26 76.12,-75.66 81.66,-84.69 86.08,-79.26"/>
</g>
<!-- Node5 -->
<g id="node5" class="node">
<title>Node5</title>
<g id="a_node5"><a xlink:title=" ">
<polygon fill="white" stroke="#bfbfbf" points="149,-56.5 149,-75.5 274,-75.5 274,-56.5 149,-56.5"/>
<text text-anchor="middle" x="211.5" y="-63.5" font-family="Helvetica,sans-Serif" font-size="10.00">gnuradio/sync_block.h</text>
</a>
</g>
</g>
<!-- Node2&#45;&gt;Node5 -->
<g id="edge4" class="edge">
<title>Node2&#45;&gt;Node5</title>
<path fill="none" stroke="midnightblue" d="M155.8,-112.4C166.95,-103.31 181.45,-91.49 192.86,-82.19"/>
<polygon fill="midnightblue" stroke="midnightblue" points="195.34,-84.69 200.88,-75.66 190.92,-79.26 195.34,-84.69"/>
</g>
<!-- Node4 -->
<g id="node4" class="node">
<title>Node4</title>
<g id="a_node4"><a xlink:title=" ">
<polygon fill="white" stroke="#bfbfbf" points="6,-0.5 6,-19.5 125,-19.5 125,-0.5 6,-0.5"/>
<text text-anchor="middle" x="65.5" y="-7.5" font-family="Helvetica,sans-Serif" font-size="10.00">gnuradio/attributes.h</text>
</a>
</g>
</g>
<!-- Node3&#45;&gt;Node4 -->
<g id="edge3" class="edge">
<title>Node3&#45;&gt;Node4</title>
<path fill="none" stroke="midnightblue" d="M65.5,-56.08C65.5,-49.01 65.5,-38.86 65.5,-29.99"/>
<polygon fill="midnightblue" stroke="midnightblue" points="69,-29.75 65.5,-19.75 62,-29.75 69,-29.75"/>
</g>
</g>
</svg>
